<?xml version="1.0" encoding="UTF-8" standalone="no"?><!DOCTYPE svg PUBLIC "-//W3C//DTD SVG 1.1//EN" "http://www.w3.org/Graphics/SVG/1.1/DTD/svg11.dtd"><svg width="100%" height="100%" viewBox="0 0 67 67" version="1.1" xmlns="http://www.w3.org/2000/svg" xmlns:xlink="http://www.w3.org/1999/xlink" xml:space="preserve" xmlns:serif="http://www.serif.com/" style="fill-rule:evenodd;clip-rule:evenodd;stroke-linejoin:round;stroke-miterlimit:2;"><g id="level-1"><path d="M60.417,33.333c-0,14.858 -12.226,27.084 -27.084,27.084c-14.857,-0 -27.083,-12.226 -27.083,-27.084c0,-14.857 12.226,-27.083 27.083,-27.083c14.851,0.018 27.065,12.233 27.084,27.083Z" style="fill:#005dba;fill-rule:nonzero;"/><path d="M36.458,33.333c0,1.715 -1.41,3.125 -3.125,3.125c-1.714,0 -3.125,-1.41 -3.125,-3.125c0,-1.714 1.411,-3.125 3.125,-3.125c1.715,0 3.125,1.411 3.125,3.125Zm-11.487,0c-0,1.715 -1.411,3.125 -3.125,3.125c-1.715,0 -3.125,-1.41 -3.125,-3.125c-0,-1.714 1.41,-3.125 3.125,-3.125c1.714,0 3.125,1.411 3.125,3.125Zm22.975,0c-0,1.715 -1.411,3.125 -3.125,3.125c-1.714,0 -3.125,-1.41 -3.125,-3.125c-0,-1.714 1.411,-3.125 3.125,-3.125c1.714,0 3.125,1.411 3.125,3.125Z" style="fill:#fff;fill-rule:nonzero;"/></g></svg>