<?xml version="1.0" encoding="UTF-8" standalone="no"?>
<!DOCTYPE svg PUBLIC "-//W3C//DTD SVG 1.1//EN" "http://www.w3.org/Graphics/SVG/1.1/DTD/svg11.dtd">
<svg width="100%" height="100%" viewBox="0 0 100 100" version="1.1" xmlns="http://www.w3.org/2000/svg" xmlns:xlink="http://www.w3.org/1999/xlink" xml:space="preserve" xmlns:serif="http://www.serif.com/" style="fill-rule:evenodd;clip-rule:evenodd;stroke-linejoin:round;stroke-miterlimit:2;">
    <g>
        <path d="M50.55,77.4C50.3,76.7 50.35,75.9 50.7,75.4C51.2,74.6 52.75,74.5 70.25,74.4L89.25,74.25L89.4,49.6L89.5,25L87.1,26.6C85.8,27.5 52.187,50.133 51.65,50.5C50.511,51.278 49.828,51.198 48.5,50.5C48.057,50.267 10.1,24.5 9.75,24.5C9.6,24.5 9.5,30 9.5,36.7L9.5,48.95L8.15,50C6.95,50.95 7.107,50.806 6.6,50.3C6.197,49.898 6.072,49.723 5.95,49.5C5.83,49.281 5.5,43.1 5.5,33.75L5.5,18L6.6,17.75C7.25,17.6 27,17.55 50.5,17.6L93.25,17.75L93.4,48.15L93.5,78.5L50.95,78.5L50.55,77.4ZM51.3,45.75C51.75,45.35 83.55,23.4 84.15,23.25C84.8,23.05 85.35,22.6 85.35,22.2C85.35,21.6 80.25,21.5 49.3,21.5L13.25,21.55L15.5,23.5C16.75,24.6 45.6,44.35 46.7,45.1C49.05,46.65 50.25,46.85 51.3,45.75Z" style="fill:rgb(211,211,211);fill-rule:nonzero;"/>
    </g>
    <g>
        <path d="M28,100L28,96L30.15,96C47.35,95.875 46.299,66.535 28.298,66.436C22.036,66.402 8,66.049 8,66.4C8,66.6 10.7,69.45 14,72.75C17.3,76.05 20,79.1 20,79.55C20,80 19.55,80.75 19,81.25C18,82.15 17.85,82.05 9.05,73.45C4.15,68.65 0.15,64.4 0.15,64C0.15,63.6 4.15,59.35 9.05,54.55C17.85,45.95 18,45.85 19,46.75C19.55,47.25 20,48 20,48.45C20,48.9 17.3,51.95 14,55.25C10.7,58.55 8,61.4 8,61.6C8,61.85 13.4,62 20,62C23.642,62 26.303,62.175 28.206,62.199C52.547,62.503 52.854,99.907 30.95,100L28,100Z" style="fill:rgb(211,112,215);fill-rule:nonzero;"/>
    </g>
</svg>
