<?xml version="1.0" encoding="UTF-8" standalone="no"?>
<!DOCTYPE svg PUBLIC "-//W3C//DTD SVG 1.1//EN" "http://www.w3.org/Graphics/SVG/1.1/DTD/svg11.dtd">
<svg width="100%" height="100%" viewBox="0 0 100 100" version="1.1" xmlns="http://www.w3.org/2000/svg" xmlns:xlink="http://www.w3.org/1999/xlink" xml:space="preserve" xmlns:serif="http://www.serif.com/" style="fill-rule:evenodd;clip-rule:evenodd;stroke-linejoin:round;stroke-miterlimit:2;">
    <g>
        <g transform="matrix(1.61687,0,0,1.61687,23.8777,-61.6871)">
            <path d="M28,100L28,94L30.15,94C47.35,93.875 46.299,67.499 28.298,67.4C22.036,67.366 10,67.013 10,67.364C10,67.564 22,79.1 22,79.55C22,80 19.55,80.75 19,81.25C18,82.15 17.85,82.05 9.05,73.45C4.15,68.65 0.15,64.4 0.15,64C0.15,63.6 4.15,59.35 9.05,54.55C17.85,45.95 18,45.85 19,46.75C19.55,47.25 22,48 22,48.45C22,48.9 10,60.4 10,60.6C10,60.85 13.4,61 20,61C23.642,61 26.303,61.175 28.206,61.199C52.547,61.503 52.854,99.907 30.95,100L28,100Z" style="fill:rgb(211,112,215);fill-rule:nonzero;"/>
        </g>
        <g transform="matrix(1.61687,0,0,1.61687,-0.0925306,-61.6871)">
            <path d="M22,48.45C22,48.9 7.181,63.678 7.181,64.029C7.181,64.229 22,79.1 22,79.55C22,80 19.55,80.75 19,81.25C18,82.15 17.85,82.05 9.05,73.45C4.15,68.65 0.15,64.4 0.15,64C0.15,63.6 4.15,59.35 9.05,54.55C17.85,45.95 18,45.85 19,46.75C19.55,47.25 22,48 22,48.45Z" style="fill:rgb(211,112,215);fill-rule:nonzero;"/>
        </g>
    </g>
</svg>
